<?xml version="1.0" standalone="no"?><!DOCTYPE svg PUBLIC "-//W3C//DTD SVG 1.1//EN" "http://www.w3.org/Graphics/SVG/1.1/DTD/svg11.dtd"><svg t="1741931113887" class="icon" viewBox="0 0 1149 1024" version="1.1" xmlns="http://www.w3.org/2000/svg" p-id="14871" xmlns:xlink="http://www.w3.org/1999/xlink" width="35.90625" height="32"><path d="M40.886857 261.22449C18.400653 261.22449 0 242.823837 0 220.337633V40.886857C0 18.400653 18.400653 0 40.886857 0h179.450776C242.823837 0 261.22449 18.400653 261.22449 40.886857v179.450776C261.22449 242.823837 242.823837 261.22449 220.337633 261.22449H40.886857z" fill="#ADC6FF" opacity=".21" p-id="14872"></path><path d="M993.039673 217.453714H119.410939V146.186449c0-15.46449 13.771755-27.998041 30.751347-27.998041h812.126041c16.979592 0 30.751347 12.538776 30.751346 27.998041v71.267265z" fill="#393D65" p-id="14873"></path><path d="M962.288327 972.444735H150.162286c-16.979592 0-30.751347-13.630694-30.751347-30.448327V217.067102h873.628734v724.929306c0 16.817633-13.766531 30.448327-30.751346 30.448327" fill="#E4EBF7" p-id="14874"></path><path d="M190.411755 168.427102c0 10.553469-8.641306 19.111184-19.299265 19.111184s-19.294041-8.557714-19.294041-19.111184 8.636082-19.105959 19.294041-19.105959 19.299265 8.557714 19.299265 19.105959" fill="#FF7A46" p-id="14875"></path><path d="M262.478367 168.427102c0 10.553469-8.641306 19.111184-19.299265 19.111184s-19.299265-8.557714-19.299265-19.111184 8.641306-19.105959 19.299265-19.105959 19.294041 8.557714 19.294041 19.105959" fill="#FFC53D" p-id="14876"></path><path d="M334.539755 168.427102c0 10.553469-8.636082 19.111184-19.294041 19.111184s-19.299265-8.557714-19.299265-19.111184 8.641306-19.105959 19.299265-19.105959 19.294041 8.557714 19.294041 19.105959" fill="#BAE637" p-id="14877"></path><path d="M213.838367 869.694694a9.545143 9.545143 0 0 1-9.597387-9.492898V309.890612c0-5.245388 4.294531-9.492898 9.597387-9.492898h694.319021c5.302857 0 9.597388 4.24751 9.597388 9.492898v550.311184a9.545143 9.545143 0 0 1-9.597388 9.492898H213.838367z" fill="#FAFCFF" p-id="14878"></path><path d="M422.781388 666.148571c10.396735 0 19.069388-1.457633 26.038857-4.367673 6.969469-2.910041 12.355918-7.361306 16.164571-13.348571 3.813878-5.987265 5.715592-12.408163 5.715592-19.262694 0-7.565061-1.593469-13.918041-4.775184-19.064164-3.186939-5.140898-7.591184-9.195102-13.228408-12.162612-5.632-2.962286-14.325551-5.835755-26.080653-8.609959-11.755102-2.774204-19.15298-5.443918-22.204081-7.998694-2.392816-2.016653-3.589224-4.440816-3.589225-7.267265 0-3.103347 1.274776-5.579755 3.834776-7.429225 3.970612-2.883918 9.472-4.325878 16.488489-4.325877 6.802286 0 11.906612 1.347918 15.307756 4.03853 3.401143 2.695837 5.621551 7.115755 6.650775 13.270204l24.163265-1.065795c-0.376163-10.992327-4.362449-19.779918-11.958857-26.368-7.591184-6.582857-18.89698-9.874286-33.917388-9.874286-9.195102 0-17.04751 1.38449-23.552 4.163918-6.499265 2.76898-11.483429 6.812735-14.936816 12.120816-3.453388 5.308082-5.182694 11.008-5.182694 17.099756 0 9.472 3.672816 17.502041 11.023674 24.084898 5.22449 4.681143 14.309878 8.620408 27.261387 11.833469 10.067592 2.507755 16.514612 4.24751 19.346286 5.22449 4.137796 1.473306 7.032163 3.197388 8.693551 5.187918 1.661388 1.985306 2.492082 4.388571 2.492082 7.220245 0 4.409469-1.974857 8.259918-5.919347 11.551347-3.94449 3.291429-9.811592 4.942367-17.590857 4.942367-7.350857 0-13.186612-1.854694-17.51249-5.553632-4.325878-3.698939-7.194122-9.498122-8.609959-17.387102l-23.510204 2.288326c1.577796 13.385143 6.420898 23.578122 14.524081 30.56849 8.113633 6.995592 19.732898 10.490776 34.863021 10.490775z m107.593143-0.161959c12.841796 0 23.494531-4.315429 31.958204-12.941061 8.463673-8.620408 12.69551-19.497796 12.69551-32.611265 0-13.00898-4.195265-23.771429-12.575347-32.287347s-19.126857-12.773878-32.245551-12.773878c-8.489796 0-16.17502 1.880816-23.060898 5.632-6.880653 3.756408-12.204408 9.195102-15.955592 16.326531-3.761633 7.131429-5.637224 14.503184-5.637224 22.12049 0 9.963102 1.880816 18.411102 5.637224 25.349224 3.751184 6.938122 9.236898 12.204408 16.446694 15.793633a50.343184 50.343184 0 0 0 22.73698 5.391673z m-0.083592-18.693224c-5.987265 0-11.023673-2.288327-15.098776-6.859755-4.085551-4.571429-6.128327-11.154286-6.128326-19.753796 0-8.59951 2.042776-15.182367 6.123102-19.753796 4.085551-4.571429 9.116735-6.859755 15.098775-6.859755 5.99249 0 11.013224 2.288327 15.067429 6.859755 4.054204 4.571429 6.081306 11.102041 6.081306 19.591837 0 8.704-2.027102 15.344327-6.081306 19.915755-4.054204 4.571429-9.074939 6.859755-15.062204 6.859755z m84.652408 16.734041v-26.775511c0-14.748735 0.637388-24.434939 1.917388-29.063836 1.28-4.623673 3.035429-7.821061 5.266285-9.592164 2.230857-1.765878 4.952816-2.654041 8.165878-2.65404 3.317551 0 6.906776 1.253878 10.772898 3.761632l7.105306-20.004571c-4.848327-2.883918-9.87951-4.325878-15.104-4.325878-3.704163 0-7.006041 0.924735-9.921306 2.774204-2.910041 1.849469-6.19102 5.689469-9.83249 11.509551v-12.329796h-21.310694V664.032653h22.940735z m65.060571 0v-26.775511c0-14.748735 0.642612-24.434939 1.917388-29.063836 1.28-4.623673 3.035429-7.821061 5.266286-9.592164 2.230857-1.765878 4.952816-2.654041 8.165877-2.65404 3.317551 0 6.912 1.253878 10.772898 3.761632l7.105306-20.004571c-4.848327-2.883918-9.87951-4.325878-15.104-4.325878-3.698939 0-7.006041 0.924735-9.916081 2.774204-2.915265 1.849469-6.19102 5.689469-9.837714 11.509551v-12.329796h-21.30547V664.032653h22.93551z m52.819592 35.181714c4.352 0 8.254694-0.46498 11.713306-1.389714 3.453388-0.924735 6.368653-2.215184 8.735347-3.876572a25.114122 25.114122 0 0 0 6.285061-6.488816c1.823347-2.66449 3.740735-6.530612 5.752164-11.593143l5.470041-15.098776 30.61551-83.435102h-23.755755l-20.244898 61.554939-20.741225-61.549714h-24.398367l32.976979 86.93551c-1.358367 4.848327-3.322776 8.829388-5.877551 11.964082-2.56 3.129469-6.50449 4.691592-11.838693 4.691592a50.745469 50.745469 0 0 1-9.717551-1.060572l2.042775 17.956572c4.24751 0.924735 8.568163 1.389714 12.982857 1.389714z" fill="#393D65" opacity=".85" p-id="14879"></path><path d="M451.751184 372.438204H275.988898c-7.194122 0-13.082122-5.825306-13.082122-12.95151s5.888-12.956735 13.082122-12.956735h175.762286c7.194122 0 13.082122 5.830531 13.082122 12.956735 0 7.126204-5.888 12.956735-13.082122 12.956735M350.129633 433.533388h-65.410613c-7.225469 0-13.087347-5.799184-13.087347-12.956735 0-7.152327 5.861878-12.95151 13.087347-12.95151h65.410613c7.225469 0 13.082122 5.799184 13.082122 12.956735 0 7.152327-5.851429 12.95151-13.082122 12.95151" fill="#ADC6FF" p-id="14880"></path><path d="M1096.547265 1024a9.842939 9.842939 0 0 1-9.853387-9.769796v-43.154286c0-5.370776 4.435592-9.769796 9.853387-9.769796h42.987102c5.417796 0 9.853388 4.39902 9.853388 9.769796v43.154286c0 5.370776-4.435592 9.769796-9.853388 9.769796h-42.987102z" fill="#FF7A46" p-id="14881"></path><path d="M136.432327 402.285714h-42.987103A9.842939 9.842939 0 0 1 83.591837 392.515918v-43.154285c0-5.370776 4.435592-9.769796 9.853387-9.769796h42.987103c5.417796 0 9.853388 4.39902 9.853387 9.769796v43.154285c0 5.370776-4.435592 9.769796-9.853387 9.769796" fill="#FFC540" p-id="14882"></path><path d="M982.204082 0c-75.023673 0-135.836735 60.813061-135.836735 135.836735s60.813061 135.836735 135.836735 135.836734 135.836735-60.813061 135.836734-135.836734-60.813061-135.836735-135.836734-135.836735" fill="#FF4D4F" p-id="14883"></path><path d="M985.312653 172.188735h-4.30498c-3.563102 0-6.457469-3.328-6.457469-7.434449V70.572408c0-4.106449 2.894367-7.434449 6.457469-7.434449h4.30498c3.568327 0 6.457469 3.328 6.457469 7.434449v94.181878c0 4.106449-2.889143 7.434449-6.457469 7.434449M985.312653 208.53551h-4.30498a6.457469 6.457469 0 0 1-6.457469-6.452245v-4.304979c0-3.568327 2.894367-6.457469 6.457469-6.45747h4.30498c3.568327 0 6.457469 2.889143 6.457469 6.45747v4.304979c0 3.563102-2.889143 6.452245-6.457469 6.452245" fill="#FFFFFF" p-id="14884"></path><path d="M48.514612 672.783673c36.644571 49.763265 55.410939 107.023673 65.865143 124.274939 8.818939 14.550204 32.966531 50.029714 62.05649 33.677061 26.765061-15.046531 12.173061-74.119837 12.173061-74.119836s-1.180735-135.476245-74.835592-169.926531c-9.163755-4.284082-17.76849-6.19102-25.652245-6.19102-43.431184-0.005224-65.018776 57.767184-39.601632 92.285387z" fill="#389E0D" p-id="14885"></path><path d="M80.060082 821.415184c23.128816 26.608327 56.508082 80.122776 77.421714 61.387755 12.669388-11.363265-4.273633-65.159837-50.646204-94.427429-10.145959-6.405224-18.379755-9.090612-24.607347-9.090612-18.003592 0-19.35151 22.371265-2.168163 42.130286z" fill="#BAE637" p-id="14886"></path><path d="M226.883918 803.014531c-16.206367 44.742531-25.563429 76.909714-9.707102 82.505142 26.017959 9.174204 51.053714-30.688653 77.129143-66.037551 19.738122-26.759837 26.947918-65.159837 4.911021-75.013224a24.837224 24.837224 0 0 0-10.198204-2.079347c-20.88751 0-48.326531 22.517551-62.134858 60.62498z" fill="#389E0D" p-id="14887"></path><path d="M280.565551 628.041143a36.216163 36.216163 0 0 0-10.840816 1.708408c-14.179265 4.493061-35.698939 17.893878-56.999184 56.346122-27.79951 50.207347-42.271347 105.242122-39.413551 140.105143 1.870367 22.799673 30.223673 32.632163 46.08 16.007837 7.288163-7.638204 14.994286-19.403755 22.538449-37.261061 30.343837-71.841959 58.723265-116.871837 62.10351-121.385796 4.628898-6.185796 8.583837-15.683918 8.688327-25.234286v-0.752326c-0.099265-8.813714-3.547429-17.601306-12.852245-23.802776a34.523429 34.523429 0 0 0-19.017143-5.731265h-0.287347z" fill="#BAE637" p-id="14888"></path><path d="M241.852082 832.036571a2.612245 2.612245 0 0 1 0.052245 3.698939l-1.180735 1.306123-0.449306 0.522449c-1.347918 1.572571-2.852571 3.463837-4.482613 5.673796a153.051429 153.051429 0 0 0-13.709061 22.742204c-12.507429 25.23951-20.01502 55.254204-20.01502 89.965714a2.612245 2.612245 0 1 1-5.229714 0c0-35.547429 7.706122-66.35102 20.558367-92.285388a158.25502 158.25502 0 0 1 14.189714-23.520653c1.697959-2.314449 3.286204-4.30498 4.71249-5.976816l1.300898-1.478531 0.553796-0.595592a2.612245 2.612245 0 0 1 3.698939-0.052245zM123.658449 842.062367a2.612245 2.612245 0 0 1 3.662367 0.496327 211.179102 211.179102 0 0 1 15.621225 23.802775c10.072816 17.778939 17.852082 36.806531 23.619918 55.834123 2.021878 6.661224 3.646694 12.84702 4.911021 18.400653l0.611265 2.758531 0.856816 4.29453a2.612245 2.612245 0 0 1-5.156571 0.888163l-0.329143-1.744979-0.480653-2.351021-0.595592-2.680163a267.284898 267.284898 0 0 0-4.81698-18.050612c-5.668571-18.677551-13.301551-37.355102-23.170612-54.768327a205.970286 205.970286 0 0 0-15.229388-23.212408 2.612245 2.612245 0 0 1 0.496327-3.667592z" fill="#243268" p-id="14889"></path><path d="M99.171265 656.765388a2.612245 2.612245 0 0 1 3.693715 0.041796l1.050122 1.123265 0.987429 1.107592 1.201632 1.389714c0.72098 0.846367 1.462857 1.74498 2.230857 2.685388l2.36147 2.972735c1.206857 1.556898 2.460735 3.22351 3.756408 4.999836 8.594286 11.807347 17.183347 26.002286 25.19249 42.605715 30.218449 62.641633 44.105143 140.826122 32.590367 234.715428a2.612245 2.612245 0 1 1-5.187918-0.632163c11.389388-92.875755-2.319673-170.051918-32.114939-231.810612-7.868082-16.310857-16.295184-30.239347-24.711837-41.795919a179.826939 179.826939 0 0 0-7.032163-9.085387l-1.656163-1.95396-1.462857-1.656163-0.940409-1.013551a2.612245 2.612245 0 0 1 0.041796-3.693714zM228.257959 745.722776a2.612245 2.612245 0 0 1 4.440817 2.748081l-1.295674 2.215184-1.645714 2.983183-1.812898 3.427266c-0.940408 1.807673-1.917388 3.761633-2.930939 5.846204-5.820082 11.958857-11.640163 25.955265-17.073633 41.87951-15.245061 44.632816-24.518531 95.320816-24.868571 151.134041a2.612245 2.612245 0 0 1-5.22449-0.031347c0.344816-56.403592 9.728-107.645388 25.140245-152.795429 5.511837-16.128 11.41551-30.328163 17.324408-42.475102 1.724082-3.552653 3.354122-6.713469 4.848327-9.477224l1.708408-3.082449 1.191184-2.048a35.683265 35.683265 0 0 1 0.193306-0.323918z" fill="#243268" p-id="14890"></path><path d="M225.118041 691.105959a7.136653 7.136653 0 1 0 14.226286 1.191184 7.136653 7.136653 0 0 0-6.514939-7.706123 7.136653 7.136653 0 0 0-7.711347 6.514939zM230.964245 764.238367a7.262041 7.262041 0 1 0 14.482286 1.217306 7.267265 7.267265 0 0 0-6.635102-7.852408 7.27249 7.27249 0 0 0-7.852409 6.635102zM146.432 690.050612c0 5.240163 5.746939 9.487673 12.852245 9.487674 7.089633 0 12.841796-4.24751 12.841796-9.487674 0-5.240163-5.752163-9.487673-12.847021-9.487673s-12.84702 4.24751-12.84702 9.487673z" fill="#FFFFFF" p-id="14891"></path><path d="M122.341878 903.920327c-6.838857 0-12.429061 5.658122-12.429062 12.570122v93.309388c0 6.917224 5.590204 12.570122 12.429062 12.570122h126.443102c6.838857 0 12.434286-5.652898 12.434285-12.570122v-93.309388c0-6.912-5.595429-12.570122-12.434285-12.570122H122.341878z" fill="#597EF7" p-id="14892"></path></svg>